<svg width="20" height="20" viewBox="0 0 20 20" fill="none" xmlns="http://www.w3.org/2000/svg">
<path d="M3.33398 18.333H16.6673" stroke="#FE830C" stroke-width="1.5" stroke-linecap="round"/>
<path d="M11.574 3.05276L12.1919 2.43484C13.2158 1.41104 14.8757 1.41104 15.8995 2.43484C16.9233 3.45865 16.9233 5.11856 15.8995 6.14236L15.2815 6.76028M11.574 3.05276C11.574 3.05276 11.6513 4.36584 12.8099 5.52444C13.9685 6.68304 15.2815 6.76028 15.2815 6.76028M11.574 3.05276L5.8932 8.73359C5.50843 9.11837 5.31604 9.31075 5.15058 9.52288C4.95541 9.77311 4.78807 10.0439 4.65155 10.3303C4.53581 10.5732 4.44977 10.8313 4.27769 11.3475L3.54852 13.535M15.2815 6.76028L9.60072 12.4411C9.21594 12.8259 9.02356 13.0183 8.81143 13.1837C8.5612 13.3789 8.29045 13.5462 8.00397 13.6828C7.76112 13.7985 7.503 13.8845 6.98677 14.0566L4.79926 14.7858M4.79926 14.7858L4.26455 14.964C4.0105 15.0487 3.73042 14.9826 3.54107 14.7932C3.35172 14.6039 3.2856 14.3238 3.37028 14.0698L3.54852 13.535M4.79926 14.7858L3.54852 13.535" stroke="#FE830C" stroke-width="1.5"/>
</svg>
