<svg width="76" height="80" viewBox="0 0 76 80" fill="none" xmlns="http://www.w3.org/2000/svg">
<path fill-rule="evenodd" clip-rule="evenodd" d="M48.6232 12.6977C46.53 9.44296 43.9418 7.98013 41.0238 7.67188C43.6258 9.00558 46.1856 10.6614 48.6232 12.6977ZM11.8315 18.3676C9.64453 19.1063 7.46525 19.6506 5.33594 19.8589C5.33594 39.9105 5.33594 59.9553 5.33594 80C17.6383 79.0253 42.1061 63.303 48.0997 71.9201C42.3068 62.5074 24.8003 54.8503 11.8315 54.6358V18.3676Z" fill="#00205B"/>
<path fill-rule="evenodd" clip-rule="evenodd" d="M48.6205 12.6972C45.2582 7.42774 40.3616 5.41375 34.6908 5.01172C39.4222 6.59602 44.2189 9.01896 48.6205 12.6972ZM11.8288 7.86513C7.7493 8.58925 3.74205 9.16964 0 9.16964C0 29.2213 0 49.266 0 69.3107C12.9327 69.5544 41.3947 62.3063 48.004 71.7698C42.1111 62.4285 24.7261 54.8506 11.8288 54.6354V7.86513Z" fill="#1C79C0"/>
<path fill-rule="evenodd" clip-rule="evenodd" d="M48.6189 12.6977C38.1376 0.180127 24.244 -0.0205035 7.46094 0.00102019C7.46094 20.0457 7.46094 40.0974 7.46094 60.1421C19.5411 60.3712 39.0977 61.5189 46.6187 69.8562C39.7288 61.4182 23.8351 54.8373 11.8272 54.6367C11.8272 36.8212 11.8272 20.1964 11.8272 2.38861C19.9708 1.88664 35.9368 2.10112 48.6189 12.6977Z" fill="#0DD3FF"/>
<path d="M54.5244 11.896L50.2441 23.6963L62.0444 27.9766L66.3247 16.1763L54.5244 11.896Z" fill="#FBB03B"/>
<path d="M44.8298 26.7549L52.4077 29.5007L49.6619 37.0855L42.084 34.3328L44.8298 26.7549Z" fill="#00205B"/>
<path d="M51.7954 40.127L61.7317 43.726L58.1257 53.67L48.1895 50.064L51.7954 40.127Z" fill="#00205B"/>
<path d="M67.7197 29.5508L75.7703 32.4688L72.8523 40.5125L64.8086 37.6022L67.7197 29.5508Z" fill="#0DD3FF"/>
<path d="M32.6903 33.8818L37.8452 35.7529L35.9742 40.9009L30.8262 39.0368L32.6903 33.8818Z" fill="#0DD3FF"/>
<path d="M38.5614 42.6855L43.7086 44.5566L41.8453 49.7038L36.6973 47.8397L38.5614 42.6855Z" fill="#FBB03B"/>
<path d="M25.3721 43.8571L24.2324 47.0039L27.3792 48.1435L28.5188 44.9967L25.3721 43.8571Z" fill="#00205B"/>
</svg>
